<svg width="183" height="183" viewBox="0 0 183 183" fill="none" xmlns="http://www.w3.org/2000/svg">
<g clip-path="url(#clip0_12_128)">
<path d="M1.66553 132.079C1.66553 119.585 11.7355 109.457 24.1573 109.457C30.3143 109.457 35.8886 111.948 39.9478 115.981C41.4533 117.476 43.9066 117.476 45.4117 115.981C49.4713 111.949 55.0457 109.457 61.2023 109.457C73.6241 109.457 83.694 119.585 83.694 132.079C83.694 155.443 53.6081 176.698 44.9717 182.318C43.5757 183.227 41.7836 183.227 40.3875 182.318C31.7518 176.698 1.66553 155.444 1.66553 132.079Z" fill="#FF6464"/>
<path d="M33.3048 111.43C30.5083 110.173 27.4195 109.457 24.1573 109.457C11.7355 109.457 1.66553 119.585 1.66553 132.08C1.66553 155.444 31.7515 176.699 40.3878 182.319C41.0859 182.773 41.8829 183 42.68 183C11.9432 141.043 22.8799 117.564 33.3048 111.43Z" fill="#D2555A"/>
<path d="M162.723 135.958C155.886 135.565 149.901 139.337 147.03 144.965C146.396 146.207 145.34 147.184 144.015 147.621C143.999 147.627 143.982 147.632 143.966 147.637C142.84 148.008 141.715 147.049 141.892 145.876C142.279 143.301 142.888 140.797 143.696 138.385C144.135 137.075 145.094 136.023 146.326 135.398C151.969 132.533 155.754 126.539 155.361 119.69C154.881 111.317 147.915 104.477 139.535 104.139C130.09 103.758 122.313 111.302 122.313 120.663C122.313 127.111 126.011 132.683 131.396 135.408C132.617 136.025 133.565 137.07 134 138.367C134.81 140.785 135.421 143.294 135.81 145.876C135.987 147.048 134.862 148.008 133.736 147.637C133.719 147.632 133.702 147.626 133.685 147.621C132.362 147.183 131.306 146.207 130.673 144.966C127.803 139.337 121.817 135.565 114.978 135.957C106.605 136.438 99.7651 143.403 99.4274 151.783C99.0467 161.228 106.591 169.005 115.951 169.005C122.379 169.005 127.935 165.332 130.669 159.975C131.305 158.729 132.366 157.75 133.694 157.311C133.71 157.306 133.725 157.3 133.741 157.295C134.867 156.924 135.989 157.885 135.815 159.058C134.647 166.915 131.427 174.1 126.717 180.055C125.775 181.246 126.647 182.999 128.166 182.999H149.534C151.053 182.999 151.926 181.246 150.984 180.055C146.273 174.1 143.053 166.915 141.885 159.058C141.711 157.885 142.833 156.924 143.96 157.295C143.975 157.3 143.991 157.306 144.006 157.311C145.335 157.75 146.395 158.729 147.031 159.975C149.765 165.332 155.322 169.005 161.749 169.005C171.11 169.005 178.654 161.228 178.273 151.783C177.937 143.404 171.097 136.438 162.723 135.958Z" fill="#515262"/>
<path d="M110.318 151.784C110.593 144.956 115.186 139.069 121.406 136.862C119.411 136.162 117.244 135.828 114.979 135.957C106.605 136.438 99.7655 143.403 99.4281 151.783C99.0475 161.228 106.592 169.005 115.952 169.005C117.866 169.005 119.699 168.673 121.407 168.074C114.744 165.754 110.015 159.305 110.318 151.784Z" fill="#464655"/>
<path d="M135.198 131.498C134.409 128.854 133.203 123.623 133.203 120.664C133.203 112.467 137.835 107.325 144.283 105.068C142.78 104.534 141.187 104.206 139.535 104.14C130.09 103.759 122.313 111.303 122.313 120.664C122.313 126.836 125.705 132.197 130.718 135.035C130.942 135.162 131.165 135.291 131.397 135.408C132.618 136.026 133.566 137.07 134 138.367C134.81 140.786 135.422 143.295 135.811 145.876C135.963 146.885 135.15 147.731 134.203 147.713L134.207 147.725C134.592 147.859 136.983 148.121 137.492 146.536C137.987 144.998 137.209 138.238 135.198 131.498Z" fill="#464655"/>
<path d="M162.723 135.958C155.886 135.565 149.9 139.337 147.03 144.965C146.396 146.207 145.339 147.184 144.015 147.621C143.999 147.627 143.639 147.718 143.481 147.719C143.481 147.719 149.641 148.575 154.569 142.033C157.475 138.175 160.601 136.596 164.569 136.184C163.963 136.077 163.35 135.993 162.723 135.958Z" fill="#464655"/>
<path d="M162.723 168.976C155.886 169.369 149.9 165.597 147.03 159.969C146.396 158.726 145.339 157.75 144.015 157.312C143.999 157.307 143.639 157.216 143.481 157.215C143.481 157.215 149.641 156.359 154.569 162.9C157.475 166.758 160.601 168.338 164.569 168.75C163.963 168.857 163.35 168.94 162.723 168.976Z" fill="#464655"/>
<path d="M134.768 180.055C136.869 174.772 138.993 159.989 135.394 157.736C135.394 157.736 135.893 158.542 135.816 159.059C134.649 166.915 131.428 174.1 126.718 180.055C125.776 181.247 126.648 183 128.167 183H136.218C134.699 183 134.207 181.467 134.768 180.055Z" fill="#464655"/>
<path d="M141.241 1.17881C151.462 14.3991 167.047 29.9866 180.265 40.2096C181.836 41.4244 181.836 43.7723 180.265 44.9872C167.047 55.2102 151.462 70.7973 141.241 84.018C140.026 85.5895 137.677 85.5895 136.463 84.018C126.242 70.7977 110.657 55.2102 97.4384 44.9872C95.8675 43.7723 95.8675 41.4244 97.4384 40.2096C110.656 29.9866 126.241 14.3991 136.462 1.17881C137.677 -0.392773 140.026 -0.392773 141.241 1.17881Z" fill="#FF6464"/>
<path d="M138.484 84.0172C133.769 70.7969 126.582 55.2094 120.485 44.9865C119.761 43.7716 119.761 41.4237 120.485 40.2088C126.582 29.9859 133.77 14.3987 138.484 1.17807C138.718 0.521132 139.196 0.232693 139.606 0.104737C138.491 -0.18406 137.244 0.168 136.462 1.17807C126.241 14.3987 110.656 29.9862 97.4379 40.2088C95.867 41.4237 95.867 43.7716 97.4379 44.9865C110.656 55.2091 126.241 70.7966 136.462 84.0172C137.243 85.0273 138.491 85.3793 139.606 85.0905C139.196 84.963 138.718 84.6745 138.484 84.0172Z" fill="#D2555A"/>
<path d="M44.7258 0.453299C43.735 -0.1511 42.5105 -0.1511 41.5201 0.453299C33.9334 5.08155 2 25.9882 2 49.9901C2 62.4648 12.0968 72.5773 24.5515 72.5773C28.6282 72.5773 32.4487 71.4911 35.7459 69.5943C36.6913 69.0503 37.7968 70.0118 37.4258 71.0451C35.6666 75.9453 33.1757 80.4913 30.0826 84.5452C28.9013 86.0936 30.0358 88.3385 31.9708 88.3385H54.5141C56.4499 88.3385 57.5819 86.0925 56.3999 84.5434C53.3418 80.5353 50.8731 76.0468 49.1178 71.2102C48.745 70.183 49.8348 69.2197 50.7833 69.748C54.0151 71.5483 57.733 72.5773 61.6947 72.5773C74.1498 72.5773 84.2462 62.4648 84.2462 49.9901C84.2462 25.9882 52.3127 5.08155 44.7258 0.453299Z" fill="#515262"/>
<path d="M33.8101 70.5739C8.47326 56.5441 32.2714 14.4695 43.3447 0.0304078C42.7178 -0.0156995 42.0819 0.110113 41.5201 0.453237C33.9334 5.08148 2 25.9881 2 49.9897C2 62.4644 12.0968 72.5769 24.5515 72.5769C27.8548 72.5772 30.9847 71.8535 33.8101 70.5739Z" fill="#464655"/>
<path d="M38.8724 85.0398C40.3307 72.9179 40.2674 69.4684 36.5366 69.4684C37.1907 69.6017 37.6933 70.3001 37.4259 71.045C35.667 75.9452 33.1762 80.4909 30.0827 84.5451C28.9014 86.0931 30.0359 88.3384 31.9709 88.3384H40.4965C38.7941 88.3384 38.7269 86.2507 38.8724 85.0398Z" fill="#464655"/>
</g>
<defs>
<clipPath id="clip0_12_128">
<rect width="183" height="183" fill="white"/>
</clipPath>
</defs>
</svg>
